RRRRRRRRRRR     OOOOOOOOOO   HHH     HHH  NNN         NNN AAAAAAAAAA KKK   KKK
RRRRRRRRRRRR   OOOOOOOOOOOO  HHH     HHH  NNNNN       NNN AAAAAAAAAA KKK   KKK
RRR      RRR   OOOOOOOOOOOO  HHH     HHH  NNNNNN      NNN AAAAAAAAAA KKK  KKK
RRR      RRRR  OOO      OOO  HHH     HHH  NNNNNNN     NNN AAA    AAA KKK  KKK
RRR      RRRR  OOO      OOO  HHH     HHH  NNN NNNN    NNN AAA    AAA KKK  KKK
RRR      RRRR  OOO      OOO  HHH     HHH  NNN  NNNN   NNN AAA    AAA KKK KKK 
RRR      RRR   OOO      OOO  HHHHHHHHHHH  NNN   NNN   NNN AAA    AAA KKKKKK
RRRRRRRRRRRR   OOO      OOO  HHHHHHHHHHH  NNN   NNN   NNN AAA    AAA KKKKK
RRRRRRRRRRR    OOO      OOO  HHHHHHHHHHH  NNN    NNN  NNN AAAAAAAAAA KKKKK
RRRRRR         OOO      OOO  HHH     HHH  NNN    NNN  NNN AAAAAAAAAA KKKKKK  
RRR RRRR       OOO      OOO  HHH     HHH  NNN     NN  NNN AAA    AAA KKK KKK
RRR  RRRR      OOO      OOO  HHH     HHH  NNN      NNNNNN AAA    AAA KKK KKK
RRR   RRRR     OOOOOOOOOOOO  HHH     HHH  NNN       NNNNN AAA    AAA KKK KK        
RRR     RRRR   OOOOOOOOOOOO  HHH     HHH  NNN        NNNN AAA    AAA KKK  KKK
RR       RRRR   OOOOOOOOOO   HHH     HHH  NNN         NNN AAA    AAA KKK   KKK

********************************************************************************

File Name    : American Pie 1[1999].DvDrip.[Rohnak]
Type         : Movie
Format       : mkv
File Size    : 139 MB
Duration     : 01:34:44
Language     : english
subtitles    : yes english
Source       : DVDRIP
 

Format                           : mkv
Codec ID                         : x264
Codec ID/Hint                    : x264
Duration                         : 1h 34mn
Bit rate                         : 192 Kbps
Width                            : 608 pixels
Height                           : 336 pixels
Display aspect ratio             : 2.35:1
Frame rate                       : 8 fps
Resolution                       : 8 bits
Colorimetry                      : 4:2:0
Scan type                        : Progressive
Bits/(Pixel*Frame)               : 0.252
Stream size                      : 139 MiB

********************************************************************************

File Name    : American Pie 2[2001].DvDrip.[Rohnak]
Type         : Movie
Format       : mkv
File Size    : 156 MB
Duration     : 01:46:09
Language     : english
subtitles    : yes english
Source       : DVDRIP
 

Format                           : mkv
Codec ID                         : x264
Codec ID/Hint                    : x264
Duration                         : 1h 46mn
Bit rate                         : 192 Kbps
Width                            : 608 pixels
Height                           : 336 pixels
Display aspect ratio             : 2.35:1
Frame rate                       : 8 fps
Resolution                       : 8 bits
Colorimetry                      : 4:2:0
Scan type                        : Progressive
Bits/(Pixel*Frame)               : 0.252
Stream size                      : 156 MiB

********************************************************************************

File Name    : American.Pie 3 The Wedding[2003].DvDrip.[Rohnak]
Type         : Movie
Format       : mkv
File Size    : 145 MB
Duration     : 01:38:45
Language     : english
subtitles    : yes english
Source       : DVDRIP


Format                           : mkv
Codec ID                         : x264
Codec ID/Hint                    : x264
Duration                         : 1h 38mn
Bit rate                         : 192 Kbps
Width                            : 608 pixels
Height                           : 256 pixels
Display aspect ratio             : 2.35:1
Frame rate                       : 8 fps
Resolution                       : 8 bits
Colorimetry                      : 4:2:0
Scan type                        : Progressive
Bits/(Pixel*Frame)               : 0.252
Stream size                      : 145 MiB

********************************************************************************

File Name    : American Pie 4 Band Camp[2005].DvDrip.[Rohnak]
Type         : Movie
Format       : mkv
File Size    : 128 MB
Duration     : 01:27:17
Language     : english
subtitles    : yes english
Source       : DVDRIP
 

Format                           : mkv
Codec ID                         : x264
Codec ID/Hint                    : x264
Duration                         : 1h 27mn
Bit rate                         : 192 Kbps
Width                            : 640 pixels
Height                           : 336 pixels
Display aspect ratio             : 2.35:1
Frame rate                       : 8 fps
Resolution                       : 8 bits
Colorimetry                      : 4:2:0
Scan type                        : Progressive
Bits/(Pixel*Frame)               : 0.252
Stream size                      : 128 MiB

********************************************************************************

File Name    : American Pie 5 The Naked Mile[2006].DvDrip.[Rohnak]
Type         : Movie
Format       : mkv
File Size    : 143 MB
Duration     : 01:37:37
Language     : english
subtitles    : yes english
Source       : DVDRIP
 

Format                           : mkv
Codec ID                         : x264
Codec ID/Hint                    : x264
Duration                         : 1h 37mn
Bit rate                         : 192 Kbps
Width                            : 576 pixels
Height                           : 304 pixels
Display aspect ratio             : 2.35:1
Frame rate                       : 8 fps
Resolution                       : 8 bits
Colorimetry                      : 4:2:0
Scan type                        : Progressive
Bits/(Pixel*Frame)               : 0.252
Stream size                      : 143 MiB

********************************************************************************

File Name    : American.Pie.Beta.House.[2007].DvDrip.[Rohnak]
Type         : Movie
Format       : mkv
File Size    : 126 MB
Duration     : 01:26:37
Language     : english
subtitles    : yes english
Source       : DVDRIP
 

Format                           : mkv
Codec ID                         : x264
Codec ID/Hint                    : x264
Duration                         : 1h 26mn
Bit rate                         : 192 Kbps
Width                            : 640 pixels
Height                           : 352 pixels
Display aspect ratio             : 2.35:1
Frame rate                       : 8 fps
Resolution                       : 8 bits
Colorimetry                      : 4:2:0
Scan type                        : Progressive
Bits/(Pixel*Frame)               : 0.252
Stream size                      : 126 MiB

********************************************************************************

File Name    : American.Pie.The.Book.of.Love.DVDRip[Rohnak]
Type         : Movie
Format       : mkv
File Size    : 136 MB
Duration     : 01:33:25
Language     : english
subtitles    : yes english
Source       : DVDRIP
 

Format                           : mkv
Codec ID                         : x264
Codec ID/Hint                    : x264
Duration                         : 1h 33mn
Bit rate                         : 192 Kbps
Width                            : 624 pixels
Height                           : 352 pixels
Display aspect ratio             : 2.35:1
Frame rate                       : 8 fps
Resolution                       : 8 bits
Colorimetry                      : 4:2:0
Scan type                        : Progressive
Bits/(Pixel*Frame)               : 0.252
Stream size                      : 136 MiB

********************************************************************************




if u need any thing move help email me at rohnakrocksm@gmail.com
